{"title":"The Tubes.mp4","uid":7391125,"size":382602031,"categoryP":"video","categoryS":"music_videos","magnet":"?xt=urn:btih:70a982a25bb61f2a64cff4356fb69a8916b4e053&amp;dn=The+Tubes.mp4&amp;tr=udp%3A%2F%2Ftracker.openbittorrent.com%3A80&amp;tr=udp%3A%2F%2Fopen.demonii.com%3A1337&amp;tr=udp%3A%2F%2Ftracker.coppersurfer.tk%3A6969&amp;tr=udp%3A%2F%2Fexodus.desync.com%3A6969","seeders":1,"leechers":0,"uploader":"mesahawni","files":1,"time":1340784211,"description":"&quot;The Completion Backwards Principle&quot; album, in slickly produced music videos based on the group's stage shows back in the early 1980's. Great collection for Tubes fans! Ripped from a laser disk several yrs ago. Enjoy!\n\nFormat                                   : MPEG-4\nFormat profile                           : Base Media\nCodec ID                                 : isom\nFile size                                : 365 MiB\nDuration                                 : 45mn 42s\nOverall bit rate mode                    : Variable\nOverall bit rate                         : 1 116 Kbps\nEncoded date                             : UTC 2010-10-31 20:54:48\nTagged date                              : UTC 2010-10-31 20:54:48\nWriting application                      : Lavf51.12.1\n\nVideo\nID                                       : 1\nFormat                                   : AVC\nFormat/Info                              : Advanced Video Codec\nFormat profile                           : &lt;a class=&quot;__cf_email__&quot; href=&quot;/cdn-cgi/l/email-protection&quot; data-cfemail=&quot;2f6d4e5c4a4346414a6f631d011f&quot;&gt;[email&amp;#160;protected]&lt;/a&gt;&lt;script cf-hash='f9e31' type=&quot;text/javascript&quot;&gt;\n/* &lt;![CDATA[ */!function(){try{var t=&quot;currentScript&quot;in document?document.currentScript:function(){for(var t=document.getElementsByTagName(&quot;script&quot;),e=t.length;e--;)if(t[e].getAttribute(&quot;cf-hash&quot;))return t[e]}();if(t&amp;&amp;t.previousSibling){var e,r,n,i,c=t.previousSibling,a=c.getAttribute(&quot;data-cfemail&quot;);if(a){for(e=&quot;&quot;,r=parseInt(a.substr(0,2),16),n=2;a.length-n;n+=2)i=parseInt(a.substr(n,2),16)^r,e+=String.fromCharCode(i);e=document.createTextNode(e),c.parentNode.replaceChild(e,c)}}}catch(u){}}();/* ]]&gt; */&lt;/script&gt;\nFormat settings, CABAC                   : No\nFormat settings, ReFrames                : 1 frame\nFormat settings, GOP                     : M=1, N=12\nCodec ID                                 : avc1\nCodec ID/Info                            : Advanced Video Coding\nDuration                                 : 45mn 42s\nBit rate mode                            : Variable\nBit rate                                 : 959 Kbps\nMaximum bit rate                         : 1 152 Kbps\nWidth                                    : 320 pixels\nHeight                                   : 240 pixels\nDisplay aspect ratio                     : 4:3\nFrame rate mode                          : Constant\nFrame rate                               : 29.970 fps\nOriginal frame rate                      : 24.000 fps\nColor space                              : YUV\nChroma subsampling                       : 4:2:0\nBit depth                                : 8 bits\nScan type                                : Progressive\nBits/(Pixel*Frame)                       : 0.417\nStream size                              : 314 MiB (86%)\n\nAudio\nID                                       : 2\nFormat                                   : AAC\nFormat/Info                              : Advanced Audio Codec\nFormat profile                           : LC\nCodec ID                                 : 40\nDuration                                 : 45mn 42s\nBit rate mode                            : Variable\nBit rate                                 : 152 Kbps\nChannel(s)                               : 2 channels\nChannel positions                        : Front: L R\nSampling rate                            : 44.1 KHz\nCompression mode                         : Lossy\nStream size                              : 49.7 MiB (14%)\n\n","torrent":{"xt":"urn:btih:70a982a25bb61f2a64cff4356fb69a8916b4e053","amp;dn":"The+Tubes.mp4","amp;tr":["udp%3A%2F%2Ftracker.openbittorrent.com%3A80","udp%3A%2F%2Fopen.demonii.com%3A1337","udp%3A%2F%2Ftracker.coppersurfer.tk%3A6969","udp%3A%2F%2Fexodus.desync.com%3A6969"],"infoHash":"70a982a25bb61f2a64cff4356fb69a8916b4e053","infoHashBuffer":{"type":"Buffer","data":[112,169,130,162,91,182,31,42,100,207,244,53,111,182,154,137,22,180,224,83]},"announce":[],"urlList":[]}}